<svg xmlns="http://www.w3.org/2000/svg" viewBox="0 0 500 300" width="500" height="300">
  <!-- Gantry Legs -->
  <rect x="100" y="200" width="20" height="100" fill="#606060" />
  <rect x="380" y="200" width="20" height="100" fill="#606060" />

  <!-- Gantry Lattice Crossbeam -->
  <g fill="none" stroke="#505050" stroke-width="3">
    <!-- Outer Frame -->
    <line x1="50" y1="180" x2="450" y2="180" />
    <line x1="50" y1="160" x2="450" y2="160" />
    <line x1="50" y1="180" x2="50" y2="160" />
    <line x1="450" y1="180" x2="450" y2="160" />

    <!-- Lattice Diagonals -->
    <line x1="50" y1="180" x2="100" y2="160" />
    <line x1="100" y1="180" x2="150" y2="160" />
    <line x1="150" y1="180" x2="200" y2="160" />
    <line x1="200" y1="180" x2="250" y2="160" />
    <line x1="250" y1="180" x2="300" y2="160" />
    <line x1="300" y1="180" x2="350" y2="160" />
    <line x1="350" y1="180" x2="400" y2="160" />
    <line x1="400" y1="180" x2="450" y2="160" />

    <line x2="50" y1="180" x1="100" y2="160" />
    <line x2="100" y1="180" x1="150" y2="160" />
    <line x2="150" y1="180" x1="200" y2="160" />
    <line x2="200" y1="180" x1="250" y2="160" />
    <line x2="250" y1="180" x1="300" y2="160" />
    <line x2="300" y1="180" x1="350" y2="160" />
    <line x2="350" y1="180" x1="400" y2="160" />
    <line x2="400" y1="180" x1="450" y2="160" />
  </g>
</svg>